<?xml version="1.0" encoding="iso-8859-1"?>
<!-- Generator: Adobe Illustrator 16.0.0, SVG Export Plug-In . SVG Version: 6.00 Build 0)  -->
<!DOCTYPE svg PUBLIC "-//W3C//DTD SVG 1.1//EN" "http://www.w3.org/Graphics/SVG/1.1/DTD/svg11.dtd">
<svg version="1.1" id="Capa_1" xmlns="http://www.w3.org/2000/svg" xmlns:xlink="http://www.w3.org/1999/xlink" x="0px" y="0px"
	 width="477.909px" height="477.909px" viewBox="0 0 477.909 477.909" style="enable-background:new 0 0 477.909 477.909;"
	 xml:space="preserve">
<g>
	<g>
		<path d="M238.954,477.909C107.195,477.909,0,370.716,0,238.955C0,107.196,107.195,0,238.954,0
			c131.761,0,238.955,107.196,238.955,238.955C477.909,370.716,370.715,477.909,238.954,477.909z M238.954,28.675
			c-115.951,0-210.28,94.329-210.28,210.28c0,115.949,94.329,210.28,210.28,210.28c115.949,0,210.28-94.331,210.28-210.28
			C449.234,123.004,354.903,28.675,238.954,28.675z"/>
	</g>
	<path d="M365.124,112.788H112.787c-9.502,0-17.205,7.703-17.205,17.205v217.924c0,9.498,7.703,17.208,17.205,17.208h252.337
		c9.502,0,17.203-7.705,17.203-17.208V129.993C382.327,120.486,374.626,112.788,365.124,112.788z M322.112,124.257
		c6.319,0,11.462,5.143,11.462,11.469c0,6.329-5.143,11.469-11.462,11.469c-6.324,0-11.472-5.141-11.472-11.469
		C310.641,129.4,315.788,124.257,322.112,124.257z M290.567,124.257c6.324,0,11.472,5.143,11.472,11.469
		c0,6.329-5.147,11.469-11.472,11.469s-11.467-5.141-11.467-11.469C279.101,129.4,284.243,124.257,290.567,124.257z
		 M365.124,347.917H112.787v-189.25h252.337V347.917z M353.652,147.195c-6.324,0-11.472-5.141-11.472-11.469
		c0-6.326,5.147-11.469,11.472-11.469s11.472,5.143,11.472,11.469C365.124,142.055,359.977,147.195,353.652,147.195z"/>
	<g id="_x23_1e1e1cff">
		<path d="M240.173,184.603c1.302-0.462,2.716,0.264,3.467,1.339c1.909,2.569,3.78,5.171,5.671,7.767
			c1.587,2.188,4.611,3.22,7.196,2.408c3.244-1.048,6.464-2.152,9.717-3.127c1.773-0.516,3.674,0.875,3.753,2.702
			c0.065,3.349,0.084,6.704,0.056,10.053c-0.056,2.663,1.736,5.22,4.21,6.161c3.3,1.085,6.632,2.093,9.898,3.274
			c1.728,0.611,2.446,2.873,1.438,4.387c-1.913,2.826-3.999,5.535-5.983,8.308c-1.46,2.063-1.512,5.008-0.191,7.152
			c2.012,2.84,4.126,5.61,6.105,8.466c1.055,1.494,0.485,3.78-1.246,4.48c-3.254,1.176-6.581,2.151-9.857,3.281
			c-2.324,0.779-4.079,3.01-4.34,5.433c-0.057,3.561-0.028,7.122-0.08,10.683c0.015,1.886-1.899,3.407-3.738,2.885
			c-3.267-0.934-6.469-2.092-9.698-3.09c-2.529-0.84-5.544,0.131-7.122,2.272c-2.034,2.726-3.985,5.521-6.039,8.229
			c-1.12,1.483-3.537,1.503-4.657,0.019c-2.07-2.712-4.025-5.503-6.065-8.242c-1.615-2.185-4.702-3.117-7.269-2.212
			c-3.106,0.989-6.193,2.034-9.311,2.981c-1.888,0.678-3.995-0.84-4-2.828c-0.037-3.28-0.023-6.553-0.014-9.833
			c0.059-2.735-1.783-5.377-4.364-6.272c-3.215-1.092-6.471-2.091-9.682-3.197c-1.769-0.564-2.539-2.88-1.496-4.41
			c1.883-2.838,3.981-5.531,5.96-8.303c1.557-2.152,1.552-5.295,0.023-7.456c-1.988-2.781-4.028-5.519-5.983-8.323
			c-1.022-1.536-0.287-3.792,1.459-4.408c3.201-1.16,6.466-2.145,9.705-3.192c2.294-0.793,4.018-2.987,4.331-5.391
			c0.124-3.647-0.044-7.297,0.093-10.939c0.091-1.825,2.023-3.144,3.766-2.632c3.265,0.964,6.48,2.088,9.735,3.101
			c2.644,0.836,5.736-0.301,7.278-2.581c1.706-2.394,3.461-4.765,5.181-7.155C238.604,185.629,239.253,184.88,240.173,184.603z"/>
		<path d="M279.231,268.097c10.528,10.888,20.937,21.907,31.409,32.855c-8.956,0.047-17.907-0.014-26.859,0.028
			c-0.042,8.951,0.01,17.912-0.023,26.864c-12.218-13.087-24.437-26.169-36.636-39.27c2.436-1.923,4.144-4.527,5.89-7.047
			c2.067,0.471,4.022,1.362,6.091,1.82c4.036,0.914,8.396,0.299,11.971-1.793C275.871,278.821,278.849,273.538,279.231,268.097z"/>
		<path d="M167.268,300.952c9.315-9.735,18.509-19.597,27.923-29.225c1.792,6.847,8.364,12.068,15.476,12.031
			c3.507,0.173,6.744-1.307,10.041-2.235c2.336,3.309,4.721,6.772,8.396,8.732c-11.651,12.526-23.308,25.053-34.954,37.589
			c-0.033-8.952,0.023-17.903-0.023-26.854C185.171,300.929,176.219,300.999,167.268,300.952z"/>
	</g>
</g>
<g>
</g>
<g>
</g>
<g>
</g>
<g>
</g>
<g>
</g>
<g>
</g>
<g>
</g>
<g>
</g>
<g>
</g>
<g>
</g>
<g>
</g>
<g>
</g>
<g>
</g>
<g>
</g>
<g>
</g>
</svg>
